# xmcd
#
# Track frame offsets:
#	150
#	12667
#	25447
#	39542
#	52560
#	66445
#	80922
#	95355
#	109812
#	123362
#	137725
#	152687
#	166684
#	184097
#	197632
#
# Disc length: 2862 seconds
#
# Revision: 1
# Processed by: cddbd v1.4PL0 Copyright (c) Steve Scherf et al.
# Submitted via: audiograbber 1.80.04
#
DISCID=c60b2c0f
DTITLE=Country - Master Source Vol. 4 (disk 11)
DYEAR=1900
DGENRE=
TTITLE0=The High Cost of Low Living
TTITLE1=Perfect Situation For A Fool
TTITLE2=Sleepin' With My Boots On
TTITLE3=I Remembered Your Name
TTITLE4=24 Thorns
TTITLE5=Always Had Enough
TTITLE6=More Or Less
TTITLE7=Perfect Love
TTITLE8=Put Your Heart Into It
TTITLE9=Livin' In Paradise
TTITLE10=The Longest Goodbye
TTITLE11=Let The Record Show
TTITLE12=If Only
TTITLE13=Just Because We're Over
TTITLE14=Country and Roads
EXTD=
EXTT0=
EXTT1=
EXTT2=
EXTT3=
EXTT4=
EXTT5=
EXTT6=
EXTT7=
EXTT8=
EXTT9=
EXTT10=
EXTT11=
EXTT12=
EXTT13=
EXTT14=
PLAYORDER=
